# xmcd CD database file
#
# Track frame offsets:
#	150
#	13201
#	26891
#	43199
#	56349
#	69141
#	82446
#	93597
#	106143
#	118621
#	132769
#	146170
#	160096
#	172055
#
# Disc length: 2476 seconds
#
# Revision: 0
# Processed by: cddbd v1.5.2PL0 Copyright (c) Steve Scherf et al.
# Submitted via: CDex 1.70beta2
#
DISCID=c509aa0e
DTITLE=B.B. KING - Anthology [CD4]
DYEAR=2007
DGENRE=Blues
TTITLE0=The Woman I Love
TTITLE1=Three O'Clock Blues
TTITLE2=Troubles, Troubles, Troubles
TTITLE3=Walking And Cryin'
TTITLE4=What Can I Do
TTITLE5=When My Heart Beats Like A Hammer
TTITLE6=When Your Baby Packs Up And Goes
TTITLE7=Why Do Everything Happen To Me
TTITLE8=Why I Sing The Blues
TTITLE9=Whole Lotta Love
TTITLE10=Woke Up This Morning
TTITLE11=You Know I Love You
TTITLE12=You Know I Go For You
TTITLE13=You Upset Me Baby
EXTD=YEAR: 2007
EXTT0=
EXTT1=
EXTT2=
EXTT3=
EXTT4=
EXTT5=
EXTT6=
EXTT7=
EXTT8=
EXTT9=
EXTT10=
EXTT11=
EXTT12=
EXTT13=
PLAYORDER=
